HIERARCHY
ROOT Bip01
{
  OFFSET 15.7446 31.5610 57.6474
  CHANNELS 6 Xposition Yposition Zposition Zrotation Xrotation Yrotation
  JOINT Bip01_Footsteps
  {
    OFFSET 53.2821 -0.0001 8.1953
    CHANNELS 6 Xposition Yposition Zposition Zrotation Xrotation Yrotation
    End Site
    {
      OFFSET 0 0 0
    }
  }
  JOINT b_Hips
  {
    OFFSET 0.0000 0.0000 0.0000
    CHANNELS 6 Xposition Yposition Zposition Zrotation Xrotation Yrotation
    JOINT b_Spine
    {
      OFFSET 10.4409 -1.6220 0.0000
      CHANNELS 6 Xposition Yposition Zposition Zrotation Xrotation Yrotation
      JOINT b_Spine1
      {
        OFFSET 8.8514 -0.0090 0.0000
        CHANNELS 6 Xposition Yposition Zposition Zrotation Xrotation Yrotation
        JOINT b_Spine2
        {
          OFFSET 11.3035 -0.0088 -0.0000
          CHANNELS 6 Xposition Yposition Zposition Zrotation Xrotation Yrotation
          JOINT b_Spine3
          {
            OFFSET 11.0297 -0.0113 0.0000
            CHANNELS 6 Xposition Yposition Zposition Zrotation Xrotation Yrotation
            JOINT b__Neck
            {
              OFFSET 14.9480 -3.1935 0.0000
              CHANNELS 6 Xposition Yposition Zposition Zrotation Xrotation Yrotation
              JOINT b__Neck1
              {
                OFFSET 5.4958 -0.0043 0.0000
                CHANNELS 6 Xposition Yposition Zposition Zrotation Xrotation Yrotation
                JOINT b__Neck2
                {
                  OFFSET 5.5266 -0.0049 0.0000
                  CHANNELS 6 Xposition Yposition Zposition Zrotation Xrotation Yrotation
                  JOINT b_Head
                  {
                    OFFSET 6.1093 -0.0000 -0.0000
                    CHANNELS 6 Xposition Yposition Zposition Zrotation Xrotation Yrotation
                    JOINT Bip01_HeadNub
                    {
                      OFFSET 28.6688 -0.0000 0.0000
                      CHANNELS 6 Xposition Yposition Zposition Zrotation Xrotation Yrotation
                      End Site
                      {
                        OFFSET 0 0 0
                      }
                    }
                    JOINT Dog_Jaw
                    {
                      OFFSET 0.6075 2.3575 -0.0000
                      CHANNELS 6 Xposition Yposition Zposition Zrotation Xrotation Yrotation
                      End Site
                      {
                        OFFSET 0 0 0
                      }
                    }
                  }
                }
              }
            }
            JOINT b_LeftClav
            {
              OFFSET 10.4683 2.1257 3.5190
              CHANNELS 6 Xposition Yposition Zposition Zrotation Xrotation Yrotation
              JOINT b_LeftArm
              {
                OFFSET 7.3453 0.0000 0.0000
                CHANNELS 6 Xposition Yposition Zposition Zrotation Xrotation Yrotation
                JOINT b_LeftForeArm
                {
                  OFFSET 23.3863 -0.0000 0.0000
                  CHANNELS 6 Xposition Yposition Zposition Zrotation Xrotation Yrotation
                  JOINT b_LeftHand
                  {
                    OFFSET 21.5040 0.0000 0.0000
                    CHANNELS 6 Xposition Yposition Zposition Zrotation Xrotation Yrotation
                    JOINT b__LeftFinger
                    {
                      OFFSET 1.5926 6.2126 -0.0138
                      CHANNELS 6 Xposition Yposition Zposition Zrotation Xrotation Yrotation
                      JOINT Bip01_L_Finger0Nub
                      {
                        OFFSET 23.3657 0.0000 0.0000
                        CHANNELS 6 Xposition Yposition Zposition Zrotation Xrotation Yrotation
                        End Site
                        {
                          OFFSET 0 0 0
                        }
                      }
                    }
                  }
                }
                JOINT Dog_LeftArmor002
                {
                  OFFSET 4.2035 4.4457 12.7354
                  CHANNELS 6 Xposition Yposition Zposition Zrotation Xrotation Yrotation
                  End Site
                  {
                    OFFSET 0 0 0
                  }
                }
              }
            }
            JOINT b_RightClav
            {
              OFFSET 10.4683 2.1257 -3.5189
              CHANNELS 6 Xposition Yposition Zposition Zrotation Xrotation Yrotation
              JOINT b_RightArm
              {
                OFFSET 7.3453 -0.0000 -0.0000
                CHANNELS 6 Xposition Yposition Zposition Zrotation Xrotation Yrotation
                JOINT b_RightForeArm
                {
                  OFFSET 23.3863 0.0000 0.0000
                  CHANNELS 6 Xposition Yposition Zposition Zrotation Xrotation Yrotation
                  JOINT b_RightHand
                  {
                    OFFSET 21.5040 0.0000 0.0000
                    CHANNELS 6 Xposition Yposition Zposition Zrotation Xrotation Yrotation
                    JOINT b_RightFinger
                    {
                      OFFSET 1.5926 6.2126 0.0138
                      CHANNELS 6 Xposition Yposition Zposition Zrotation Xrotation Yrotation
                      JOINT Bip01_R_Finger0Nub
                      {
                        OFFSET 23.3657 0.0000 0.0000
                        CHANNELS 6 Xposition Yposition Zposition Zrotation Xrotation Yrotation
                        End Site
                        {
                          OFFSET 0 0 0
                        }
                      }
                    }
                  }
                }
                JOINT Dog_RightArmor002
                {
                  OFFSET 4.2034 4.4457 -12.7351
                  CHANNELS 6 Xposition Yposition Zposition Zrotation Xrotation Yrotation
                  End Site
                  {
                    OFFSET 0 0 0
                  }
                }
              }
            }
          }
        }
      }
    }
    JOINT b_Tail001
    {
      OFFSET -4.7889 3.8598 0.8608
      CHANNELS 6 Xposition Yposition Zposition Zrotation Xrotation Yrotation
      JOINT b_Tail002
      {
        OFFSET 4.2212 0.0000 -0.0000
        CHANNELS 6 Xposition Yposition Zposition Zrotation Xrotation Yrotation
        JOINT b_Tail003
        {
          OFFSET 4.9750 0.0000 -0.0000
          CHANNELS 6 Xposition Yposition Zposition Zrotation Xrotation Yrotation
          JOINT b_Tail004
          {
            OFFSET 4.7171 -0.0000 0.0000
            CHANNELS 6 Xposition Yposition Zposition Zrotation Xrotation Yrotation
            JOINT b_Tail005
            {
              OFFSET 9.7173 -0.0000 -0.0001
              CHANNELS 6 Xposition Yposition Zposition Zrotation Xrotation Yrotation
              JOINT b_Tail006
              {
                OFFSET 8.2617 0.0001 0.0000
                CHANNELS 6 Xposition Yposition Zposition Zrotation Xrotation Yrotation
                JOINT b_Tail007
                {
                  OFFSET 9.7599 -0.0001 0.0000
                  CHANNELS 6 Xposition Yposition Zposition Zrotation Xrotation Yrotation
                  JOINT b_Tail008
                  {
                    OFFSET 11.1530 0.0000 -0.0000
                    CHANNELS 6 Xposition Yposition Zposition Zrotation Xrotation Yrotation
                    JOINT b_Tail009
                    {
                      OFFSET 10.3039 0.0000 0.0000
                      CHANNELS 6 Xposition Yposition Zposition Zrotation Xrotation Yrotation
                      End Site
                      {
                        OFFSET 0 0 0
                      }
                    }
                  }
                }
              }
            }
          }
        }
      }
    }
    JOINT Dog_LeftTail001
    {
      OFFSET -11.9878 -1.7857 10.1900
      CHANNELS 6 Xposition Yposition Zposition Zrotation Xrotation Yrotation
      JOINT Dog_LeftTail002
      {
        OFFSET 8.4424 0.0000 0.0000
        CHANNELS 6 Xposition Yposition Zposition Zrotation Xrotation Yrotation
        JOINT Dog_LeftTail003
        {
          OFFSET 9.9501 0.0000 -0.0000
          CHANNELS 6 Xposition Yposition Zposition Zrotation Xrotation Yrotation
          JOINT Dog_LeftTail004
          {
            OFFSET 9.4342 0.0000 -0.0000
            CHANNELS 6 Xposition Yposition Zposition Zrotation Xrotation Yrotation
            JOINT Dog_LeftTail005
            {
              OFFSET 9.7173 0.0001 0.0001
              CHANNELS 6 Xposition Yposition Zposition Zrotation Xrotation Yrotation
              JOINT Dog_LeftTail006
              {
                OFFSET 8.2618 -0.0000 -0.0000
                CHANNELS 6 Xposition Yposition Zposition Zrotation Xrotation Yrotation
                JOINT Dog_LeftTail007
                {
                  OFFSET 9.7599 0.0000 0.0000
                  CHANNELS 6 Xposition Yposition Zposition Zrotation Xrotation Yrotation
                  JOINT Dog_LeftTail008
                  {
                    OFFSET 11.1529 -0.0001 -0.0001
                    CHANNELS 6 Xposition Yposition Zposition Zrotation Xrotation Yrotation
                    JOINT Dog_LeftTail009
                    {
                      OFFSET 10.3039 -0.0000 0.0000
                      CHANNELS 6 Xposition Yposition Zposition Zrotation Xrotation Yrotation
                      End Site
                      {
                        OFFSET 0 0 0
                      }
                    }
                  }
                }
              }
            }
          }
        }
      }
    }
    JOINT b_LeftLegUpper
    {
      OFFSET -0.0000 0.0000 9.9422
      CHANNELS 6 Xposition Yposition Zposition Zrotation Xrotation Yrotation
      JOINT b_LeftLeg
      {
        OFFSET 25.9795 0.0000 0.0000
        CHANNELS 6 Xposition Yposition Zposition Zrotation Xrotation Yrotation
        JOINT b_LeftLeg1
        {
          OFFSET 21.2087 0.0000 -0.0000
          CHANNELS 6 Xposition Yposition Zposition Zrotation Xrotation Yrotation
          JOINT b_LeftAnkle
          {
            OFFSET 10.4341 -0.0000 0.0000
            CHANNELS 6 Xposition Yposition Zposition Zrotation Xrotation Yrotation
            JOINT b_LeftToe
            {
              OFFSET 5.6676 6.5983 -0.0000
              CHANNELS 6 Xposition Yposition Zposition Zrotation Xrotation Yrotation
              JOINT Bip01_L_Toe0Nub
              {
                OFFSET 8.6279 -0.0000 0.0000
                CHANNELS 6 Xposition Yposition Zposition Zrotation Xrotation Yrotation
                End Site
                {
                  OFFSET 0 0 0
                }
              }
            }
            JOINT b_LeftToe002
            {
              OFFSET 5.6741 -2.3619 -0.5306
              CHANNELS 6 Xposition Yposition Zposition Zrotation Xrotation Yrotation
              End Site
              {
                OFFSET 0 0 0
              }
            }
          }
        }
      }
      JOINT Dog_LeftArmor001
      {
        OFFSET -2.6287 -3.4254 -3.1462
        CHANNELS 6 Xposition Yposition Zposition Zrotation Xrotation Yrotation
        End Site
        {
          OFFSET 0 0 0
        }
      }
    }
    JOINT b_RightLegUpper
    {
      OFFSET 0.0000 -0.0000 -9.9422
      CHANNELS 6 Xposition Yposition Zposition Zrotation Xrotation Yrotation
      JOINT b_RightLeg
      {
        OFFSET 25.9795 0.0000 0.0000
        CHANNELS 6 Xposition Yposition Zposition Zrotation Xrotation Yrotation
        JOINT b_RightLeg1
        {
          OFFSET 21.2087 0.0000 0.0000
          CHANNELS 6 Xposition Yposition Zposition Zrotation Xrotation Yrotation
          JOINT b_RightAnkle
          {
            OFFSET 10.4341 -0.0000 -0.0000
            CHANNELS 6 Xposition Yposition Zposition Zrotation Xrotation Yrotation
            JOINT b_RightToe
            {
              OFFSET 5.6676 6.5983 -0.0000
              CHANNELS 6 Xposition Yposition Zposition Zrotation Xrotation Yrotation
              JOINT Bip01_R_Toe0Nub
              {
                OFFSET 8.6279 -0.0000 0.0000
                CHANNELS 6 Xposition Yposition Zposition Zrotation Xrotation Yrotation
                End Site
                {
                  OFFSET 0 0 0
                }
              }
            }
            JOINT b_RightToe002
            {
              OFFSET 5.6741 -2.3620 0.5304
              CHANNELS 6 Xposition Yposition Zposition Zrotation Xrotation Yrotation
              End Site
              {
                OFFSET 0 0 0
              }
            }
          }
        }
      }
      JOINT Dog_RightArmor001
      {
        OFFSET -2.6288 -3.4254 3.1460
        CHANNELS 6 Xposition Yposition Zposition Zrotation Xrotation Yrotation
        End Site
        {
          OFFSET 0 0 0
        }
      }
    }
  }
}
MOTION
Frames: 4
Frame Time: 0.00833333
-42.6767 56.9516 264.262 89.4092 0.311974 -156.754 53.2821 -6.35e-05 8.19533 -90 -81.2558 -180 0 0 0 -89.9999 -5.43972e-14 -90 10.4409 -1.622 1.78e-05 -15.6095 1.52333 -6.07498 8.8514 -0.0089989 0 -5.55921 4.34223 1.01736 11.3035 -0.0087814 0 -2.6287 4.83879 -0.376034 11.0297 -0.0113029 1.42109e-14 0.823421 3.0362 -2.0929 14.948 -3.19349 8.6e-06 -15.5369 -21.2714 5.7253 5.49578 -0.0042877 1.42109e-14 7.23529 -8.36839 3.62525 5.52657 -0.0048637 -3.55271e-15 8.25266 -7.69298 8.4025 6.10934 -1.42109e-14 0 43.8003 7.03764 -6.00316 28.6688 0 3.55271e-15 6.36111e-15 -3.18055e-15 3.18055e-15 0.607494 2.35752 -7.6e-06 -156.427 -0.000147608 180 10.4683 2.1257 3.51896 -167.779 6.26502 -102.238 7.34534 0 1.9e-06 27.6458 -84.9633 129.046 23.3863 -1.9e-06 1e-06 -48.7352 0.528437 -1.28057 21.504 0 -1.42109e-14 12.5684 1.82903 5.62132 1.59262 6.21256 -0.0138378 12.8908 -34.3294 14.1067 23.3657 0 1e-06 1.59028e-15 0 -2.38542e-15 4.20345 4.44573 12.7354 172.377 0.21838 -87.1877 10.4683 2.12572 -3.51895 -178.254 8.56543 95.9527 7.34534 -7.10543e-15 -1.9e-06 -21.0608 68.7395 -66.8253 23.3863 1.9e-06 1.42109e-14 -27.9187 -6.36111e-15 -1.19271e-15 21.504 3.8e-06 1e-06 -122.736 -19.3389 3.21051 1.59262 6.21257 0.0138388 -15.6066 -2.42943 3.05367 23.3657 0 1e-06 180 -4.25399e-14 1.05356e-14 4.20337 4.4457 -12.7351 172.377 -0.218352 87.1876 -4.78895 3.85983 0.86083 164.952 2.72019 -0.547239 4.22117 3.815e-05 -5.7e-06 -16.9861 -15.6802 -24.8924 4.97505 3.8e-06 -6.7e-06 -34.501 -10.0953 6.60148 4.7171 -1.145e-05 2.86e-05 -6.36111e-15 -1.59028e-15 -2.38542e-15 9.71734 -4.2e-05 -5.72e-05 -3.18055e-15 7.95139e-16 1.59028e-15 8.26175 8.01e-05 5.7e-06 6.36111e-15 -5.56597e-15 -2.38542e-15 9.75986 -6.48e-05 2.86e-05 -9.54166e-15 -2.38542e-15 -2.38542e-15 11.153 2.67e-05 -2.1e-05 -1.54487e-31 -5.56597e-15 -1.59028e-15 10.3039 1.14e-05 4.2e-05 -3.31043e-32 7.95139e-16 2.38542e-15 -11.9878 -1.78568 10.19 170.606 3.62573 1.11034 8.44238 1.53e-05 4.2e-05 -1.59028e-15 1.98785e-16 -0 9.95005 7.6e-06 -2.86e-05 -3.18055e-15 -2.98177e-16 -3.97569e-16 9.43418 2.84217e-14 -4.58e-05 -1.59028e-15 -2.98177e-16 3.97569e-16 9.71733 6.87e-05 0.0001106 -1.59028e-15 5.96354e-16 3.97569e-16 8.26175 -2.29e-05 -4.77e-05 -0 3.97569e-16 -0 9.75994 2.86e-05 3.05e-05 2.75869e-33 3.97569e-16 -3.97569e-16 11.1529 -7.25e-05 -5.91e-05 -1.59028e-15 2.98177e-16 -0 10.3039 -7.6e-06 0 -6.89673e-34 -9.93923e-17 -3.97569e-16 -1.14e-05 1.53e-05 9.94222 -112.447 16.5746 177.067 25.9795 1e-06 1.42109e-14 -30.1137 -0.447835 -1.12486 21.2087 1.9e-06 -1e-06 61.5122 6.31114 -19.3652 10.4341 -1.9e-06 1e-06 -3.3057 -1.90735 4.82462 5.66763 6.59832 0 93.6984 23.3517 -13.6272 8.62785 0 0 -180 2.34566e-14 -3.97569e-15 5.67414 -2.36194 -0.530567 -75.8081 4.38708 5.33411 -2.62874 -3.42539 -3.14618 29.7499 1.82752 90.2264 1.53e-05 -1.53e-05 -9.94222 -122.056 -9.33835 172.483 25.9795 2.84217e-14 1e-06 -59.8612 -1.15321 2.32748 21.2087 2.84217e-14 1.9e-06 70.8414 -16.698 20.7529 10.4341 -1.9e-06 -1e-06 -14.1315 3.41899 -6.76238 5.66763 6.59831 0 80.9379 1.27253 -1.79722 8.62785 0 7.10543e-15 1.59028e-15 -3.97569e-16 -7.95139e-16 5.67412 -2.36198 0.530356 -75.808 -4.38692 -5.33418 -2.62878 -3.42545 3.14601 29.7498 -1.82753 -90.2266
-42.7747 56.8626 262.208 90.2165 1.10692 -156.305 53.2821 -6.35e-05 8.19533 -90 -81.2558 -180 0 0 0 -89.9999 -4.1675e-14 -90 10.4409 -1.622 1.78e-05 -16.0751 1.58035 -5.53515 8.8514 -0.0089989 -1.42109e-14 -5.81812 4.31788 1.25766 11.3035 -0.0087814 0 -2.72942 4.81382 -0.243651 11.0297 -0.0113029 0 0.922225 2.90549 -1.84178 14.948 -3.19349 8.6e-06 -14.9433 -20.3886 5.92876 5.49578 -0.0042877 1.42109e-14 7.06666 -8.60551 3.76156 5.52657 -0.0048637 3.55271e-15 8.27704 -7.74412 8.43166 6.10934 -2.84217e-14 0 43.7473 7.02745 -5.86398 28.6688 0 -1.06581e-14 9.54166e-15 -3.18055e-15 3.18055e-15 0.607494 2.35752 -7.6e-06 -156.427 -0.000147608 180 10.4683 2.1257 3.51896 -168.441 5.33681 -102.067 7.34534 -7.10543e-15 1.9e-06 25.4939 -85.6319 126.469 23.3863 -1.9e-06 1e-06 -52.329 0.607677 -1.24493 21.504 -2.84217e-14 -7.10543e-15 7.00688 1.274 5.77202 1.59262 6.21256 -0.0138378 14.6256 -39.911 13.7446 23.3657 0 1e-06 -1.32417e-30 9.54166e-15 7.95139e-15 4.20345 4.44573 12.7354 172.377 0.21838 -87.1877 10.4683 2.12572 -3.51895 -177.17 7.43302 94.1869 7.34534 0 -1.9e-06 -25.903 66.7762 -61.8171 23.3863 1.9e-06 1.42109e-14 -27.4431 -9.54166e-15 5.96354e-15 21.504 3.8e-06 1e-06 -123.517 -19.3246 3.50372 1.59262 6.21257 0.0138388 -16.509 -3.51619 3.18156 23.3657 -2.84217e-14 1e-06 180 2.38542e-15 -1.03368e-14 4.20337 4.4457 -12.7351 172.377 -0.218352 87.1876 -4.78895 3.85983 0.86083 165.643 2.77112 0.227175 4.22117 3.815e-05 -5.7e-06 -17.665 -16.9076 -24.6904 4.97505 3.8e-06 -6.7e-06 -34.8746 -9.8372 6.65505 4.7171 -1.145e-05 2.86e-05 8.82781e-32 1.59028e-15 -3.18055e-15 9.71734 -4.2e-05 -5.72e-05 2.75869e-31 3.97569e-15 -3.97569e-15 8.26175 8.01e-05 5.7e-06 3.18055e-15 7.95139e-16 -3.18055e-15 9.75986 -6.48e-05 2.86e-05 -3.18055e-15 -1.59028e-15 7.95139e-16 11.153 2.67e-05 -2.1e-05 -3.18055e-15 -1.59028e-15 7.95139e-16 10.3039 1.14e-05 4.2e-05 -3.18055e-15 -1.59028e-15 7.95139e-16 -11.9878 -1.78568 10.19 170.606 3.62573 1.11034 8.44238 1.53e-05 4.2e-05 1.59028e-15 9.93923e-17 3.97569e-16 9.95005 7.6e-06 -2.86e-05 1.59028e-15 -1.98785e-16 -0 9.43418 1.42109e-14 -4.58e-05 1.59028e-15 -1.98785e-16 -7.95139e-16 9.71733 6.87e-05 0.0001106 1.59028e-15 -8.94531e-16 -3.97569e-16 8.26175 -2.29e-05 -4.77e-05 1.59028e-15 -7.95139e-16 -0 9.75994 2.86e-05 3.05e-05 1.59028e-15 -7.95139e-16 -3.97569e-16 11.1529 -7.25e-05 -5.91e-05 1.59028e-15 -7.95139e-16 -3.97569e-16 10.3039 -7.6e-06 0 -4.82771e-33 -6.95746e-16 -3.97569e-16 -1.14e-05 1.53e-05 9.94222 -111.744 16.1305 178.024 25.9795 1e-06 -1.42109e-14 -31.3 -0.424449 -1.13389 21.2087 1.9e-06 -1e-06 61.9145 6.78955 -19.4429 10.4341 -1.9e-06 1e-06 -3.91176 -1.95837 4.80418 5.66763 6.59832 0 93.0464 22.6342 -13.2248 8.62785 0 0 -180 6.48038e-14 6.36111e-15 5.67414 -2.36194 -0.530567 -75.8081 4.38708 5.33411 -2.62874 -3.42539 -3.14618 29.7499 1.82752 90.2264 1.53e-05 -1.53e-05 -9.94222 -123.874 -10.0117 173.244 25.9795 0 1e-06 -59.4428 -1.13618 2.33584 21.2087 -2.84217e-14 1.9e-06 73.535 -16.3687 22.0257 10.4341 -1.9e-06 -1e-06 -15.1861 4.24555 -6.59183 5.66763 6.59831 0 80.414 1.75461 -2.19062 8.62785 0 0 -7.95139e-16 -4.47266e-16 -1.59028e-15 5.67412 -2.36198 0.530355 -75.808 -4.38692 -5.33418 -2.62878 -3.42545 3.14601 29.7498 -1.82753 -90.2266
-42.8659 56.8415 260.173 90.9035 1.91566 -156.082 53.2821 -6.35e-05 8.19533 -90 -81.2558 -180 0 0 0 -89.9999 -4.1675e-14 -90 10.4409 -1.622 1.78e-05 -16.4971 1.5553 -4.99727 8.8514 -0.0089989 0 -5.79862 4.14489 1.51885 11.3035 -0.0087814 0 -2.69162 4.78113 -0.0728852 11.0297 -0.0113029 0 0.977954 2.80498 -1.59934 14.948 -3.19349 8.6e-06 -14.6036 -19.2956 6.07828 5.49578 -0.0042877 7.10543e-15 6.85129 -8.73263 3.8908 5.52657 -0.0048637 -7.10543e-15 8.29939 -7.76812 8.46175 6.10934 -2.13163e-14 0 43.6806 7.00674 -5.79286 28.6688 -1.42109e-14 0 -1.27222e-14 0 -0 0.607494 2.35752 -7.6e-06 -156.427 -0.000147608 180 10.4683 2.1257 3.51896 -169.361 4.50561 -101.799 7.34534 0 1.9e-06 29.0366 -86.0873 129.436 23.3863 -1.9e-06 1e-06 -54.8357 0.661547 -1.21716 21.504 0 0 -0.33467 0.523491 5.88734 1.59262 6.21256 -0.0138378 14.4795 -43.8337 11.7847 23.3657 1.42109e-14 1e-06 -0 0 -6.36111e-15 4.20345 4.44573 12.7354 172.377 0.21838 -87.1877 10.4683 2.12572 -3.51895 -176.324 6.31768 92.4232 7.34534 3.55271e-15 -1.9e-06 -30.729 64.6861 -56.7815 23.3863 1.9e-06 1.42109e-14 -26.752 3.18055e-15 2.18663e-15 21.504 3.8e-06 1e-06 -123.245 -18.7789 4.12553 1.59262 6.21257 0.0138388 -17.9699 -4.94672 3.28865 23.3657 0 1e-06 180 -1.35174e-14 -9.54166e-15 4.20337 4.4457 -12.7351 172.377 -0.218352 87.1876 -4.78895 3.85983 0.86083 166.571 2.82644 1.05275 4.22117 3.815e-05 -5.7e-06 -17.9477 -18.153 -24.224 4.97505 3.8e-06 -6.7e-06 -35.0199 -10.2976 6.67031 4.7171 -1.145e-05 2.86e-05 -3.18055e-15 -3.18055e-15 -1.59028e-15 9.71734 -4.2e-05 -5.72e-05 -6.36111e-15 0 -4.77083e-15 8.26175 8.01e-05 5.7e-06 -3.18055e-15 1.59028e-15 -1.59028e-15 9.75986 -6.48e-05 2.86e-05 -1.32417e-31 -2.38542e-15 -3.18055e-15 11.153 2.67e-05 -2.1e-05 -3.18055e-15 -2.38542e-15 -3.18055e-15 10.3039 1.14e-05 4.2e-05 -3.18055e-15 -1.59028e-15 -3.97569e-15 -11.9878 -1.78568 10.19 170.606 3.62573 1.11034 8.44238 1.53e-05 4.2e-05 -4.77083e-15 -1.78906e-15 -0 9.95005 7.6e-06 -2.86e-05 -3.18055e-15 -9.93923e-16 -0 9.43418 1.42109e-14 -4.58e-05 -5.51738e-33 3.97569e-16 7.95139e-16 9.71733 6.87e-05 0.0001106 -1.59028e-15 -1.19271e-15 7.95139e-16 8.26175 -2.29e-05 -4.77e-05 -5.51738e-33 3.97569e-16 7.95139e-16 9.75994 2.86e-05 3.05e-05 -1.59028e-15 9.93923e-16 -0 11.1529 -7.25e-05 -5.91e-05 -0 7.95139e-16 -0 10.3039 -7.6e-06 0 -1.59028e-15 5.96354e-16 -0 -1.14e-05 1.53e-05 9.94222 -110.861 15.5886 178.874 25.9795 1e-06 1.42109e-14 -32.2575 -0.405441 -1.14083 21.2087 1.9e-06 -1e-06 61.3059 7.00689 -19.3211 10.4341 -1.9e-06 1e-06 -4.32819 -1.9933 4.78982 5.66763 6.59832 0 92.6906 22.1061 -12.8469 8.62785 0 0 -180 -5.12864e-14 4.77083e-15 5.67414 -2.36194 -0.530567 -75.8081 4.38708 5.33411 -2.62874 -3.42539 -3.14618 29.7499 1.82752 90.2264 1.53e-05 -1.53e-05 -9.94222 -125.536 -10.8428 173.863 25.9795 0 1e-06 -58.6482 -1.10367 2.35137 21.2087 2.84217e-14 1.9e-06 75.5072 -16.0267 23.0606 10.4341 -1.9e-06 -1e-06 -15.7634 4.32684 -6.54469 5.66763 6.59831 0 80.1682 2.05606 -2.42623 8.62785 4.44089e-16 0 -1.98785e-16 4.22417e-16 -7.95139e-16 5.67412 -2.36198 0.530355 -75.808 -4.38692 -5.33418 -2.62878 -3.42545 3.14601 29.7498 -1.82753 -90.2266
-42.951 56.9025 258.149 91.3908 2.70923 -155.979 53.2821 -6.35e-05 8.19533 -90 -81.2558 -180 0 0 0 -89.9999 -4.1675e-14 -90 10.4409 -1.622 1.78e-05 -16.8148 1.41927 -4.47213 8.8514 -0.0089989 0 -5.65812 3.7728 1.77746 11.3035 -0.0087814 0 -2.5929 4.74555 0.120303 11.0297 -0.0113029 0 1.00586 2.72917 -1.34987 14.948 -3.19349 8.6e-06 -14.3911 -18.066 6.19724 5.49578 -0.0042877 -3.55271e-15 6.57154 -8.7399 4.00735 5.52657 -0.0048637 -1.06581e-14 8.31907 -7.76792 8.48894 6.10934 -2.84217e-14 -1.42109e-14 43.6049 6.98111 -5.76421 28.6688 0 -7.10543e-15 -1.27222e-14 -4.77083e-15 -3.18055e-15 0.607494 2.35752 -7.6e-06 -156.427 -0.000147608 180 10.4683 2.1257 3.51896 -170.469 3.74618 -101.538 7.34534 -7.10543e-15 1.9e-06 39.2402 -86.2296 138.998 23.3863 -1.9e-06 1e-06 -56.0595 0.687394 -1.20275 21.504 0 0 -9.76909 -0.452061 5.89323 1.59262 6.21256 -0.0138378 11.3234 -44.9767 7.49928 23.3657 -1.42109e-14 1e-06 -3.18055e-15 -1.59028e-15 -3.18055e-15 4.20345 4.44573 12.7354 172.377 0.21838 -87.1877 10.4683 2.12572 -3.51895 -175.528 5.15574 90.6395 7.34534 -7.10543e-15 -1.9e-06 -35.4811 62.5514 -51.7213 23.3863 1.9e-06 0 -25.859 0 1.04362e-14 21.504 3.8e-06 1e-06 -122.134 -17.7742 5.32806 1.59262 6.21257 0.0138388 -19.6192 -6.52704 3.32083 23.3657 -2.84217e-14 1e-06 180 2.0276e-14 2.127e-14 4.20337 4.4457 -12.7351 172.377 -0.218352 87.1876 -4.78895 3.85983 0.86083 167.247 2.62507 1.85942 4.22117 3.815e-05 -5.7e-06 -17.6487 -18.9322 -23.4144 4.97505 3.8e-06 -6.7e-06 -34.9353 -10.2295 6.65194 4.7171 -1.145e-05 2.86e-05 -3.18055e-15 -3.18055e-15 -0 9.71734 -4.2e-05 -5.72e-05 1.21382e-31 -4.37326e-15 1.59028e-15 8.26175 8.01e-05 5.7e-06 3.18055e-15 -1.59028e-15 1.59028e-15 9.75986 -6.48e-05 2.86e-05 -1.98626e-31 -3.57812e-15 -3.18055e-15 11.153 2.67e-05 -2.1e-05 4.41391e-32 -1.59028e-15 1.59028e-15 10.3039 1.14e-05 4.2e-05 6.62086e-32 -1.59028e-15 2.38542e-15 -11.9878 -1.78568 10.19 170.606 3.62573 1.11034 8.44238 1.53e-05 4.2e-05 -1.59028e-15 -1.59028e-15 -0 9.95005 7.6e-06 -2.86e-05 4.41391e-32 -1.59028e-15 1.59028e-15 9.43418 2.84217e-14 -4.58e-05 -0 -1.98785e-16 -0 9.71733 6.87e-05 0.0001106 -1.59028e-15 -3.97569e-16 -0 8.26175 -2.29e-05 -4.77e-05 8.27607e-33 -5.96354e-16 7.95139e-16 9.75994 2.86e-05 3.05e-05 5.51738e-33 -3.97569e-16 7.95139e-16 11.1529 -7.25e-05 -5.91e-05 -0 -9.93923e-16 -0 10.3039 -7.6e-06 0 -0 0 7.95139e-16 -1.14e-05 1.53e-05 9.94222 -109.879 14.9658 179.532 25.9795 1e-06 2.84217e-14 -32.8894 -0.392832 -1.14523 21.2087 1.9e-06 -1e-06 59.5789 7.43975 -18.959 10.4341 -1.9e-06 1e-06 -4.43906 -2.00258 4.78596 5.66763 6.59832 0 92.6421 21.6247 -12.6545 8.62785 0 7.10543e-15 -180 6.08281e-14 1.98785e-15 5.67414 -2.36194 -0.530567 -75.8081 4.38708 5.33411 -2.62874 -3.42539 -3.14618 29.7499 1.82752 90.2264 1.53e-05 -1.53e-05 -9.94222 -127.069 -11.8153 174.275 25.9795 0 1e-06 -57.393 -1.05188 2.37498 21.2087 0 1.9e-06 76.5898 -15.7119 23.8171 10.4341 -1.9e-06 -1e-06 -15.6598 3.22288 -6.7362 5.66763 6.59831 0 80.109 2.38276 -2.55149 8.62785 -1.77636e-15 1.42109e-14 -7.95139e-16 1.14301e-15 1.59028e-15 5.67412 -2.36198 0.530355 -75.808 -4.38692 -5.33418 -2.62878 -3.42545 3.14601 29.7498 -1.82753 -90.2266
